<?xml version="1.0" encoding="UTF-8" standalone="no"?><!DOCTYPE svg PUBLIC "-//W3C//DTD SVG 1.1//EN" "http://www.w3.org/Graphics/SVG/1.1/DTD/svg11.dtd"><svg width="100%" height="100%" viewBox="0 0 512 512" version="1.1" xmlns="http://www.w3.org/2000/svg" xmlns:xlink="http://www.w3.org/1999/xlink" xml:space="preserve" xmlns:serif="http://www.serif.com/" style="fill-rule:evenodd;clip-rule:evenodd;stroke-linejoin:round;stroke-miterlimit:2;"><g id="Design-2" serif:id="Design 2"><g id="Cloud"><path d="M38.4,307.825c-0,42.4 34.4,76.8 76.8,76.8l290.64,0c0.48,-0.08 1.04,-0.08 1.52,-0.16c36.96,-2.16 66.24,-32.8 66.24,-70.24c0,-28.8 -17.28,-53.68 -42.24,-64.56c-16.08,-7.04 -25.28,-24 -22.48,-41.36c0.48,-3.04 0.72,-6.16 0.72,-9.36c-0,-31.84 -25.76,-57.6 -57.6,-57.6c-8.4,0 -16.32,1.76 -23.36,4.96c-15.44,6.88 -33.6,2.8 -44.72,-10c-17.68,-20.4 -43.68,-33.28 -72.72,-33.28c-53.04,0 -96,42.96 -96,96c-0,16.4 -10.24,30.96 -25.6,36.4c-29.92,10.56 -51.2,39.04 -51.2,72.4Z" style="fill:#fff;fill-rule:nonzero;"/><path d="M328.64,146.385c-15.44,6.88 -33.6,2.8 -44.72,-10c-17.68,-20.48 -43.68,-33.36 -72.72,-33.36c-53.04,0 -96,42.96 -96,96l-0,0.16c-0,16.32 -10.24,30.8 -25.6,36.24c-29.92,10.56 -51.2,39.04 -51.2,72.4c-0,42.4 34.4,76.8 76.8,76.8l290.64,0c0.48,-0.08 1.04,-0.08 1.52,-0.16c36.96,-2.16 66.24,-32.8 66.24,-70.24c0,-28.8 -17.28,-53.68 -42.24,-64.56c-16.08,-7.04 -25.28,-24 -22.48,-41.36c0.48,-3.04 0.72,-6.16 0.72,-9.36c0,-31.84 -25.76,-57.6 -57.6,-57.6c-8.4,0 -16.32,1.76 -23.36,4.96l0,0.08Zm80.96,276.48l0,0.16l-294.4,0c-63.6,0 -115.2,-51.6 -115.2,-115.2c-0,-50.16 32.08,-92.8 76.8,-108.64l-0,-0.16c-0,-74.24 60.16,-134.4 134.4,-134.4c40.72,0 77.12,18.08 101.84,46.64c11.92,-5.28 25.04,-8.24 38.96,-8.24c53.04,0 96,42.96 96,96c0,5.28 -0.4,10.4 -1.2,15.44c38.4,16.8 65.2,55.12 65.2,99.76c0,57.92 -45.28,105.28 -102.4,108.64Z" style="fill:#62b6e7;fill-rule:nonzero;"/></g><g id="Lock"><path d="M213.484,228.565l-0,14.172l18.896,-0l-0,-14.172c-0,-13.05 10.57,-23.62 23.62,-23.62c13.05,-0 23.62,10.57 23.62,23.62l0,14.172l18.896,-0l0,-14.172c0,-23.473 -19.044,-42.516 -42.516,-42.516c-23.472,-0 -42.516,19.043 -42.516,42.516Z" style="fill:#ccc;fill-rule:nonzero;"/><path d="M189.864,261.633c-0,-10.422 8.474,-18.896 18.896,-18.896l94.48,-0c10.422,-0 18.896,8.474 18.896,18.896l0,56.688c0,10.422 -8.474,18.896 -18.896,18.896l-94.48,-0c-10.422,-0 -18.896,-8.474 -18.896,-18.896l-0,-56.688Z" style="fill:#74e762;fill-rule:nonzero;"/></g></g></svg>